<?xml version="1.0" encoding="UTF-8"?>
<svg id="katman_1" xmlns="http://www.w3.org/2000/svg" version="1.1" viewBox="0 0 500 500">
  <!-- Generator: Adobe Illustrator 29.8.7, SVG Export Plug-In . SVG Version: 2.1.1 Build 1)  -->
  <defs>
    <style>
      .st0 {
        fill: #fff;
      }
    </style>
  </defs>
  <path class="st0" d="M500,0v500H0V0h500ZM157.89,231.26h29.7c1.08-1.08.47-2.99.65-4.53,3.03-25.87,22.06-47.56,47.47-53.41,45.54-10.49,86.49,30.37,73.98,75.97-.64,2.33-3.22,7.68-3.34,9.33-.15,2.06.98,6.62,1.08,9.1.53,12.69-.43,25.76-.01,38.49.25.29,2.63-1.7,2.98-2,69-59.11,17.9-171.91-71.71-160.62-44.41,5.59-79.14,42.82-80.79,87.67ZM272.33,344.5c13.01.18,23.94-10.02,25.13-22.91-.91-15.98,1.18-33.22-.02-49.05-2.17-28.79-36.03-47.65-62.18-37.07-5.5,2.22-13.97,8.53-13.97,15.14v21.93c0,.16-1.03.7.2.6,9.23-13.03,31.38-20.15,44.47-8.97,2.74,2.34,6.37,7.91,6.37,11.57v68.78ZM262.76,297.05c-35.85,7.78-71.03-19.58-74.22-55.56l-.54-.66h-30.1c2.81,39.64,31.63,73.67,70.09,83.22,8.6,2.13,23.78,5.12,30.6-1.86,1.48-1.51,4.17-6.55,4.17-8.59v-16.55Z"/>
  <path d="M157.89,231.26c1.65-44.85,36.39-82.07,80.79-87.67,89.61-11.29,140.71,101.51,71.71,160.62-.35.3-2.73,2.29-2.98,2-.41-12.73.54-25.8.01-38.49-.1-2.48-1.23-7.04-1.08-9.1.12-1.65,2.7-7,3.34-9.33,12.51-45.6-28.43-86.46-73.98-75.97-25.41,5.85-44.44,27.54-47.47,53.41-.18,1.55.43,3.46-.65,4.53h-29.7Z"/>
  <path d="M262.76,297.05v16.55c0,2.04-2.69,7.07-4.17,8.59-6.82,6.99-22.01,4-30.6,1.86-38.46-9.55-67.28-43.58-70.09-83.22h30.1l.54.66c3.19,35.98,38.38,63.34,74.22,55.56Z"/>
  <path d="M272.33,344.5v-68.78c0-3.66-3.63-9.23-6.37-11.57-13.08-11.18-35.23-4.06-44.47,8.97-1.22.1-.2-.43-.2-.6v-21.93c0-6.61,8.47-12.91,13.97-15.14,26.16-10.58,60.01,8.28,62.18,37.07,1.2,15.83-.89,33.07.02,49.05-1.19,12.89-12.12,23.09-25.13,22.91Z"/>
</svg>
