<?xml version="1.0" encoding="utf-8"?><svg fill="none" viewBox="0 0 500 500" xmlns="http://www.w3.org/2000/svg"><defs /><g id="Bod"><g transform="translate(253.344,238.918)"><animateTransform repeatCount="indefinite" type="translate" attributeName="transform" dur="0.5s" begin="0s" calcMode="spline" values="253.344 238.918; 253.344 256.918; 253.344 238.918; 253.344 256.918; 253.344 238.918" keyTimes="0; 0.25; 0.5; 0.75; 1" keySplines="0 0 1 1; 0 0 1 1; 0 0 1 1; 0 0 1 1" fill="freeze" /><g transform="scale(1,1) translate(-253.344,-246.918)"><g id="AU_2 Outlines - Group 7"><g transform="translate(284.561,299.967)"><animateTransform repeatCount="indefinite" type="translate" attributeName="transform" dur="0.5s" begin="0s" calcMode="spline" values="284.561 299.967; 284.561 304.967; 284.561 299.967; 284.561 299.967; 284.561 299.967" keyTimes="0; 0.25; 0.5; 0.75; 1" keySplines="0 0 1 1; 0 0 1 1; 0 0 1 1; 0 0 1 1" fill="freeze" /><g transform="rotate(-53)"><animateTransform repeatCount="indefinite" type="rotate" attributeName="transform" dur="0.5s" begin="0s" calcMode="spline" values="-53; 0; 0; -53" keyTimes="0; 0.25; 0.75; 1" keySplines="0 0 1 1; 0 0 1 1; 0 0 1 1" fill="freeze" /><g transform="scale(3,3) translate(-101.264,-115.721)"><g transform="matrix(1,0,0,1,0,0)" id="AU_2 Outlines - Group 18"><g id="Group 7"><path stroke-linejoin="miter" stroke-linecap="round" stroke-width="12.2" stroke-opacity="1" stroke="#231f20" d="M101.348,115.826L101.348,120.555L101.348,125.282" /></g></g></g></g></g></g></g></g></g><g id="Bod"><g transform="translate(253.344,238.918)"><animateTransform repeatCount="indefinite" type="translate" attributeName="transform" dur="0.5s" begin="0s" calcMode="spline" values="253.344 238.918; 253.344 256.918; 253.344 238.918; 253.344 256.918; 253.344 238.918" keyTimes="0; 0.25; 0.5; 0.75; 1" keySplines="0 0 1 1; 0 0 1 1; 0 0 1 1; 0 0 1 1" fill="freeze" /><g transform="scale(1,1) translate(-253.344,-246.918)"><g id="pack"><g transform="translate(198.236,246.787)"><animateTransform repeatCount="indefinite" type="translate" attributeName="transform" dur="0.5s" begin="0.02s" calcMode="spline" values="198.236 246.787; 198.236 252.787; 198.236 246.787; 198.236 252.787; 198.236 246.787" keyTimes="0; 0.28; 0.52; 0.76; 1" keySplines="0 0 1 1; 0 0 1 1; 0 0 1 1; 0 0 1 1" fill="freeze" /><g transform="scale(1,1) translate(-198.236,-258.787)"><g id="AU_2 Outlines - Group 15" transform="matrix(3,0,0,3,-19.234,-47.195)"><g id="Group 15" transform="matrix(1,0,0,1,72.49,101.994)"><path fill="#ed1c24" fill-opacity="1" d="M0.929,11.701L-0.93,11.701C-2.894,11.701,-4.5,10.095,-4.5,8.131L-4.5,-8.13C-4.5,-10.094,-2.894,-11.701,-0.93,-11.701L0.929,-11.701C2.893,-11.701,4.5,-10.094,4.5,-8.13L4.5,8.131C4.5,10.095,2.893,11.701,0.929,11.701Z" /></g></g><g id="AU_2 Outlines - Group 14" transform="matrix(3,0,0,3,-19.232,-47.196)"><g id="Group 14" transform="matrix(1,0,0,1,72.489,102.079)"><path fill="#cc1725" fill-opacity="1" d="M1.614,0.904C-0.35,0.904,-1.956,-0.702,-1.956,-2.666L-1.956,-11.617C-3.42,-11.17,-4.5,-9.82,-4.5,-8.215L-4.5,8.047C-4.5,10.01,-2.893,11.617,-0.929,11.617L0.929,11.617C2.893,11.617,4.5,10.01,4.5,8.047L4.5,0.736C4.173,0.836,3.832,0.904,3.473,0.904L1.614,0.904Z" /></g></g><g id="AU_2 Outlines - Group 13" transform="matrix(3,0,0,3,-19.234,-47.195)"><g id="Group 13" transform="matrix(1,0,0,1,72.49,101.994)"><path stroke-linejoin="miter" stroke-linecap="butt" stroke-width="2" stroke-opacity="1" stroke="#231f20" d="M0.929,11.701L-0.93,11.701C-2.894,11.701,-4.5,10.095,-4.5,8.131L-4.5,-8.13C-4.5,-10.094,-2.894,-11.701,-0.93,-11.701L0.929,-11.701C2.893,-11.701,4.5,-10.094,4.5,-8.13L4.5,8.131C4.5,10.095,2.893,11.701,0.929,11.701Z" /></g></g></g></g></g></g></g></g><g id="Bod"><g transform="translate(253.344,238.918)"><animateTransform repeatCount="indefinite" type="translate" attributeName="transform" dur="0.5s" begin="0s" calcMode="spline" values="253.344 238.918; 253.344 256.918; 253.344 238.918; 253.344 256.918; 253.344 238.918" keyTimes="0; 0.25; 0.5; 0.75; 1" keySplines="0 0 1 1; 0 0 1 1; 0 0 1 1; 0 0 1 1" fill="freeze" /><g transform="scale(1,1) translate(-253.344,-246.918)"><g id="AU_2 Outlines - Group 5"><g transform="translate(221.757,300.217)"><g transform="rotate(45)"><animateTransform repeatCount="indefinite" type="rotate" attributeName="transform" dur="0.5s" begin="0s" calcMode="spline" values="45; 14; -28; 0; 45" keyTimes="0; 0.25; 0.5; 0.75; 1" keySplines="0 0 1 1; 0 0 1 1; 0 0 1 1; 0 0 1 1" fill="freeze" /><g transform="scale(3,3) translate(-80.33,-115.804)"><g transform="matrix(1,0,0,1,0,0)" id="AU_2 Outlines - Group 17"><g id="Group 5"><path stroke-linejoin="miter" stroke-linecap="round" stroke-width="12.2" stroke-opacity="1" stroke="#231f20" d="M80.413,115.826C80.413,115.826,82.77,119.097,82.77,120.673C82.77,122.249,80.413,125.282,80.413,125.282" /></g></g></g></g></g></g></g></g></g><g id="Bod"><g transform="translate(253.344,238.918)"><animateTransform repeatCount="indefinite" type="translate" attributeName="transform" dur="0.5s" begin="0s" calcMode="spline" values="253.344 238.918; 253.344 256.918; 253.344 238.918; 253.344 256.918; 253.344 238.918" keyTimes="0; 0.25; 0.5; 0.75; 1" keySplines="0 0 1 1; 0 0 1 1; 0 0 1 1; 0 0 1 1" fill="freeze" /><g transform="scale(1,1) translate(-253.344,-246.918)"><g id="AU_2 Outlines - Group 10" transform="matrix(3,0,0,3,-19.233,-47.196)"><g id="Group 10" transform="matrix(1,0,0,1,90.859,98.038)"><path fill="#ed1c24" fill-opacity="1" d="M11.386,22.158L-11.385,22.158C-13.699,22.158,-15.576,20.282,-15.576,17.969L-15.576,-9.12C-15.576,-16.321,-9.739,-22.158,-2.538,-22.158L2.539,-22.158C9.74,-22.158,15.576,-16.321,15.576,-9.12L15.576,17.969C15.576,20.282,13.7,22.158,11.386,22.158Z" /></g></g><g id="AU_2 Outlines - Group 9" transform="matrix(3,0,0,3,-19.233,-47.195)"><g id="Group 9" transform="matrix(1,0,0,1,90.859,98.522)"><path fill="#cc1725" fill-opacity="1" d="M3.136,3.51C-4.065,3.51,-9.902,-2.327,-9.902,-9.528L-9.902,-13.359C-9.902,-16.424,-8.999,-19.272,-7.46,-21.673C-12.219,-19.73,-15.576,-15.062,-15.576,-9.604L-15.576,17.484C-15.576,19.797,-13.7,21.673,-11.386,21.673L11.386,21.673C13.7,21.673,15.576,19.797,15.576,17.484L15.576,1.228C13.48,2.666,10.946,3.51,8.212,3.51L3.136,3.51Z" /></g></g><g id="AU_2 Outlines - Group 8" transform="matrix(3,0,0,3,-19.233,-47.196)"><g id="Group 8" transform="matrix(1,0,0,1,90.859,98.038)"><path stroke-linejoin="miter" stroke-linecap="butt" stroke-width="2" stroke-opacity="1" stroke="#231f20" d="M11.386,22.158L-11.385,22.158C-13.699,22.158,-15.576,20.282,-15.576,17.969L-15.576,-9.12C-15.576,-16.321,-9.739,-22.158,-2.538,-22.158L2.539,-22.158C9.74,-22.158,15.576,-16.321,15.576,-9.12L15.576,17.969C15.576,20.282,13.7,22.158,11.386,22.158Z" /></g></g></g></g></g><g id="Bod"><g transform="translate(253.344,238.918)"><animateTransform repeatCount="indefinite" type="translate" attributeName="transform" dur="0.5s" begin="0s" calcMode="spline" values="253.344 238.918; 253.344 256.918; 253.344 238.918; 253.344 256.918; 253.344 238.918" keyTimes="0; 0.25; 0.5; 0.75; 1" keySplines="0 0 1 1; 0 0 1 1; 0 0 1 1; 0 0 1 1" fill="freeze" /><g transform="scale(1,1) translate(-253.344,-246.918)"><g id="AU_2 Outlines - Group 7"><g transform="translate(284.561,299.967)"><animateTransform repeatCount="indefinite" type="translate" attributeName="transform" dur="0.5s" begin="0s" calcMode="spline" values="284.561 299.967; 284.561 304.967; 284.561 299.967; 284.561 299.967; 284.561 299.967" keyTimes="0; 0.25; 0.5; 0.75; 1" keySplines="0 0 1 1; 0 0 1 1; 0 0 1 1; 0 0 1 1" fill="freeze" /><g transform="rotate(-53)"><animateTransform repeatCount="indefinite" type="rotate" attributeName="transform" dur="0.5s" begin="0s" calcMode="spline" values="-53; 0; 0; -53" keyTimes="0; 0.25; 0.75; 1" keySplines="0 0 1 1; 0 0 1 1; 0 0 1 1" fill="freeze" /><g transform="scale(3,3) translate(-101.264,-115.721)"><g id="Group 7"><path stroke-linejoin="miter" stroke-linecap="round" stroke-width="8.2" stroke-opacity="1" stroke="#cc1725" d="M101.348,115.826L101.348,120.555L101.348,125.282" /></g></g></g></g></g></g></g></g><g id="Bod"><g transform="translate(253.344,238.918)"><animateTransform repeatCount="indefinite" type="translate" attributeName="transform" dur="0.5s" begin="0s" calcMode="spline" values="253.344 238.918; 253.344 256.918; 253.344 238.918; 253.344 256.918; 253.344 238.918" keyTimes="0; 0.25; 0.5; 0.75; 1" keySplines="0 0 1 1; 0 0 1 1; 0 0 1 1; 0 0 1 1" fill="freeze" /><g transform="scale(1,1) translate(-253.344,-246.918)"><g transform="matrix(3,0,0,3,-19.232,-47.195)" id="AU_2 Outlines - Group 6"><g id="Group 6" transform="matrix(1,0,0,1,95.902,118.122)"><path stroke-linejoin="miter" stroke-linecap="round" stroke-width="2" stroke-opacity="1" stroke="#231f20" fill="#cc1725" fill-opacity="1" d="M10.533,-4.128C10.533,0.849,7.729,4.128,-0.424,4.128C-5.534,4.128,-9.479,2.739,-11.012,0.704" /></g></g></g></g></g><g id="Bod"><g transform="translate(253.344,238.918)"><animateTransform repeatCount="indefinite" type="translate" attributeName="transform" dur="0.5s" begin="0s" calcMode="spline" values="253.344 238.918; 253.344 256.918; 253.344 238.918; 253.344 256.918; 253.344 238.918" keyTimes="0; 0.25; 0.5; 0.75; 1" keySplines="0 0 1 1; 0 0 1 1; 0 0 1 1; 0 0 1 1" fill="freeze" /><g transform="scale(1,1) translate(-253.344,-246.918)"><g id="AU_2 Outlines - Group 5"><g transform="translate(221.757,300.217)"><g transform="rotate(45)"><animateTransform repeatCount="indefinite" type="rotate" attributeName="transform" dur="0.5s" begin="0s" calcMode="spline" values="45; 14; -28; 0; 45" keyTimes="0; 0.25; 0.5; 0.75; 1" keySplines="0 0 1 1; 0 0 1 1; 0 0 1 1; 0 0 1 1" fill="freeze" /><g transform="scale(3,3) translate(-80.33,-115.804)"><g id="Group 5"><path stroke-linejoin="miter" stroke-linecap="round" stroke-width="8.2" stroke-opacity="1" stroke="#cc1725" d="M80.413,115.826C80.413,115.826,82.77,119.097,82.77,120.673C82.77,122.249,80.413,125.282,80.413,125.282" /></g></g></g></g></g></g></g></g><g id="Bod"><g transform="translate(253.344,238.918)"><animateTransform repeatCount="indefinite" type="translate" attributeName="transform" dur="0.5s" begin="0s" calcMode="spline" values="253.344 238.918; 253.344 256.918; 253.344 238.918; 253.344 256.918; 253.344 238.918" keyTimes="0; 0.25; 0.5; 0.75; 1" keySplines="0 0 1 1; 0 0 1 1; 0 0 1 1; 0 0 1 1" fill="freeze" /><g transform="scale(1,1) translate(-253.344,-246.918)"><g id="face"><g transform="translate(280.767,233.945)"><animateTransform repeatCount="indefinite" type="translate" attributeName="transform" dur="0.52s" begin="0s" calcMode="spline" values="280.767 233.945; 280.767 239.945; 280.767 233.945; 280.767 239.945; 280.767 233.945" keyTimes="0; 0.231; 0.5; 0.731; 1" keySplines="0.333 0 0.667 1; 0.333 0 0.667 1; 0.333 0 0.667 1; 0.333 0 0.667 1" fill="freeze" /><g transform="scale(1,1) translate(-280.767,-241.945)"><g id="AU_2 Outlines - Group 4" transform="matrix(3,0,0,3,-19.233,-47.195)"><g id="Group 4" transform="matrix(1,0,0,1,100,96.38)"><path fill="#088ab7" fill-opacity="1" d="M4.081,7.419L-4.081,7.419C-8.161,7.419,-11.5,4.081,-11.5,0.001C-11.5,-4.08,-8.161,-7.419,-4.081,-7.419L4.081,-7.419C8.161,-7.419,11.499,-4.08,11.499,0.001C11.499,4.081,8.161,7.419,4.081,7.419Z" /></g></g><g id="AU_2 Outlines - Group 3" transform="matrix(3,0,0,3,-19.232,-47.195)"><g id="Group 3" transform="matrix(1,0,0,1,100,94.228)"><path fill="#27aae1" fill-opacity="1" d="M-4.081,5.266L4.081,5.266C7.413,5.266,10.248,3.038,11.177,-0.001C10.248,-3.039,7.413,-5.267,4.081,-5.267L-4.081,-5.267C-7.413,-5.267,-10.248,-3.039,-11.177,-0.001C-10.248,3.038,-7.413,5.266,-4.081,5.266Z" /></g></g><g id="AU_2 Outlines - Group 2" transform="matrix(3,0,0,3,-19.233,-47.195)"><g id="Group 2" transform="matrix(1,0,0,1,102.375,95.228)"><path fill="#f1f2f2" fill-opacity="1" d="M2.093,2.555L-2.092,2.555C-3.497,2.555,-4.647,1.405,-4.647,-0.001C-4.647,-1.405,-3.497,-2.555,-2.092,-2.555L2.093,-2.555C3.497,-2.555,4.647,-1.405,4.647,-0.001C4.647,1.405,3.497,2.555,2.093,2.555Z" /></g></g><g id="AU_2 Outlines - Group 1" transform="matrix(3,0,0,3,-19.233,-47.195)"><g id="Group 1" transform="matrix(1,0,0,1,100,96.38)"><path stroke-linejoin="miter" stroke-linecap="butt" stroke-width="2" stroke-opacity="1" stroke="#231f20" d="M4.081,7.419L-4.081,7.419C-8.161,7.419,-11.5,4.081,-11.5,0.001C-11.5,-4.08,-8.161,-7.419,-4.081,-7.419L4.081,-7.419C8.161,-7.419,11.499,-4.08,11.499,0.001C11.499,4.081,8.161,7.419,4.081,7.419Z" /></g></g></g></g></g></g></g></g></svg>